# xmcd
#
# Track frame offsets: 
#        150
#        18110
#        26100
#        42490
#        53603
#        67143
#        82113
#        94353
#        110830
#        120880
#        136413
#        146373
#        158825
#        170478
#        180690
#        192968
#        209780
#        223763
#        238353
#        250465
#        262955
#        273565
#        288553
#        298753
#        309860
#
# Disc length: 4276 seconds
#
# Revision: 0
# Processed by: cddbd v1.5.2PL0 Copyright (c) Steve Scherf et al.
# Submitted via: ExactAudioCopy v1.3
#
DISCID=8c10b219
DTITLE=Buddy Guy - The Complete Chess Studio Recordings [disk 2]
DYEAR=1992
DGENRE=Chicago Blues
TTITLE0=Worried Mind (a.k.a. Stick Around)
TTITLE1=Untitled Instrumental
TTITLE2=Moanin'
TTITLE3=I Dig Your Wig (Unedited)
TTITLE4=My Time After Awhile
TTITLE5=Night Flight
TTITLE6=Crazy Love (Crazy Music)
TTITLE7=Every Girl I See
TTITLE8=Too Many Ways
TTITLE9=Leave My Girl Alone
TTITLE10=Got To Use Your Head
TTITLE11=Keep It To Myself (a.k.a. Keep It To Yourself)
TTITLE12=My Mother
TTITLE13=She Suits Me To A Tee
TTITLE14=Mother-In-Law Blues
TTITLE15=Buddy's Groove
TTITLE16=Going To School
TTITLE17=I Cry And Sing The Blues
TTITLE18=Goin' Home
TTITLE19=I Suffer With The Blues
TTITLE20=Lip Lap Louie
TTITLE21=My Time After Awhile (alternate vocal and mix)
TTITLE22=Too Many Ways (alternate with background vocal)
TTITLE23=Keep It To Myself (alternate with organ overdub)
TTITLE24=I Didn't Know My Mother (She Suits Me To A Tee alternate)
EXTD=
EXTT0=
EXTT1=
EXTT2=
EXTT3=
EXTT4=
EXTT5=
EXTT6=
EXTT7=
EXTT8=
EXTT9=
EXTT10=
EXTT11=
EXTT12=
EXTT13=
EXTT14=
EXTT15=
EXTT16=
EXTT17=
EXTT18=
EXTT19=
EXTT20=
EXTT21=
EXTT22=
EXTT23=
EXTT24=
PLAYORDER=
